<?xml version="1.0" encoding="UTF-8" standalone="no"?>
<svg width="200" height="200" viewBox="0 0 200 200" fill="none" xmlns="http://www.w3.org/2000/svg">
  <rect width="200" height="200" fill="#DC2626"/>
  <path d="M50 75C50 61.193 61.193 50 75 50H125C138.807 50 150 61.193 150 75V125C150 138.807 138.807 150 125 150H75C61.193 150 50 138.807 50 125V75Z" fill="white"/>
  <path d="M70 90C70 85.5817 73.5817 82 78 82H122C126.418 82 130 85.5817 130 90V110C130 114.418 126.418 118 122 118H78C73.5817 118 70 114.418 70 110V90Z" fill="#DC2626"/>
  <text x="100" y="105" font-family="Arial, sans-serif" font-size="24" font-weight="bold" fill="white" text-anchor="middle" dominant-baseline="middle">SS!</text>
  <text x="100" y="140" font-family="Arial, sans-serif" font-size="14" font-weight="bold" fill="#4B5563" text-anchor="middle" dominant-baseline="middle">SUZIE SUES!</text>
</svg>
